<?xml version="1.0" encoding="utf-8"?>
<!-- Generator: Adobe Illustrator 18.1.1, SVG Export Plug-In . SVG Version: 6.00 Build 0)  -->
<!DOCTYPE svg PUBLIC "-//W3C//DTD SVG 1.1//EN" "http://www.w3.org/Graphics/SVG/1.1/DTD/svg11.dtd">
<svg version="1.1" id="Layer_1" xmlns="http://www.w3.org/2000/svg" xmlns:xlink="http://www.w3.org/1999/xlink" x="0px" y="0px"
	 viewBox="0 0 500 487" enable-background="new -2.5 4 500 487" xml:space="preserve" height="100px" width="100px">
<g id="Change1">
	<path fill="#EADEB9" d="M474.3,342.3c3.3-110.3-27.1-143-27.1-143s-289.7-28.9-362.2,23.2c-52,37.3-39,97.8-39,124l0,0V443
		c0,31.3,6.4,45.5,22.9,45.5s27.1-40.3,27.1-40.3l12.9-43.9c1.4,0,2.8,0,4.3,0l9.4,38.6c6.4,30.9,16.4,45.5,30.2,44.8
		c16.4-1,23.3-13.5,23.3-44.8v-38.6c20.2,9.4,48.6,15.2,80.2,15.2c27.8,0,53.2-4.6,72.6-12.1l4.9,34.9c5.8,30.4,12.7,46.1,29.2,46.1
		c18.3,0,19-14.7,25.4-45.5l0,0l4-49.7c6.7-0.5,18-7.1,18-7.1l6.8,40.1c0,0,11,56.3,27.4,58c19.7,1.9,26.3-14.2,26.3-45.5
		C470.8,438.8,471.7,428.2,474.3,342.3z"/>
	<path fill="#EADEB9" d="M469,97.1c-3.9-27.2-5.7-47.7-19.8-69.2C429.1-2.9,363.5,7.5,315.6,14.4c-36.1,5.1-89.2,15.2-111.8,33.7
		c-25,20.4-17.6,50.6-12.1,88.7c5.7,39.7,14.8,76.2,38.3,97.5c19.5,17.7,45.6,24.6,119.1,14.1s94.7-20.5,108.4-43.1
		C474.1,178.4,474.6,136.6,469,97.1z"/>
	<circle fill="#EADEB9" cx="44.7" cy="236.5" r="44.6"/>
</g>
<g id="Change2">
	<path fill="#605649" d="M346.7,238.2c67.6-9.7,109.3-22.1,110.9-55.9c1.5-33.9-69.7-86.3-130.1-77.6s-110.2,66.9-101.4,105.7
		C235,249.1,279.1,247.9,346.7,238.2z"/>
	<circle fill="#605649" cx="406.4" cy="100.1" r="31.3"/>
	<circle fill="#605649" cx="244.5" cy="127.6" r="31.3"/>
	<path fill="#605649" d="M225.3,36.1l-32.8,104.6c0,0-55.3-46.9-52.4-59.5S225.3,36.1,225.3,36.1z"/>
	<path fill="#605649" d="M399.8,6.4l61,91.2c0,0,40-60.7,33.6-71.8C487.8,14.6,399.8,6.4,399.8,6.4z"/>
</g>
<path fill="#352E27" d="M330,122.2c-8,1.1-19.4-15.6-19.4-15.6c-0.3-1.8,1.6-3.5,4-3.8l24.6-3.5c2.5-0.4,4.7,0.8,4.9,2.5
	C344.1,101.7,338,121,330,122.2z"/>
<g id="Change5">
	<path fill="#AD2533" d="M323.7,185l2.8,19.8c1,6.7,8.4,11.1,16.7,10c8.3-1.2,14.2-7.6,13.2-14.3l-2.8-19.8L323.7,185z"/>
</g>
<line fill="none" stroke="#352E27" stroke-width="5" stroke-miterlimit="10" x1="329" y1="114.8" x2="339" y2="184.5"/>
<path fill="none" stroke="#352E27" stroke-width="5" stroke-miterlimit="10" d="M298.5,158.1c0,0,11.9,30.4,41.5,26.1
	c29.7-4.3,32.5-36.8,32.5-36.8"/>
<g id="Change3">
	<circle fill="#352E27" cx="244.7" cy="128.5" r="22.1"/>
	<circle fill="#352E27" cx="406" cy="97.1" r="22.1"/>
</g>
<circle fill="#FFFFFF" cx="245" cy="122.1" r="9.3"/>
<circle fill="#FFFFFF" cx="406.4" cy="90.7" r="9.3"/>
<path fill="#AD2533" d="M235.7,81.4"/>
<g id="Change4">
	<g opacity="0.3">
		<path fill="#352E27" d="M108.9,404.5c0,0,0.3-0.1,0.8-0.4c0.5-0.3,1.2-0.7,2.1-1.2c0.9-0.5,1.9-1.2,3.1-1.9
			c1.2-0.8,2.5-1.6,3.9-2.6c1.4-1,2.8-2.1,4.3-3.4c1.5-1.2,2.9-2.6,4.4-4.1c1.4-1.5,2.8-3.1,4.1-4.9c0.7-0.8,1.2-1.8,1.8-2.7
			c0.5-0.9,1.1-1.8,1.6-2.8l0.7-1.4l0.6-1.5c0.5-1,0.8-2,1.2-3c0.2-0.5,0.3-1,0.5-1.5c0.2-0.5,0.3-1,0.5-1.5c0.3-1,0.5-2,0.7-3
			c0.2-1,0.3-2,0.5-3c0.2-1,0.2-2,0.3-2.9c0.1-1,0.1-1.9,0.2-2.8s0.1-1.8,0.1-2.7c0-1.7,0-3.3,0-4.7c-0.1-1.4,0-2.7-0.2-3.7
			c-0.1-1-0.1-1.8-0.1-2.4s0-0.9,0-0.9s0.1,0.3,0.4,0.8c0.2,0.5,0.6,1.3,1,2.2c0.4,1,0.8,2.2,1.3,3.6c0.2,0.7,0.5,1.4,0.7,2.2
			c0.2,0.8,0.4,1.7,0.6,2.5c0.2,0.9,0.3,1.8,0.5,2.8c0.1,1,0.3,2,0.3,3c0,1.1,0.1,2.1,0.1,3.2s-0.1,2.3-0.2,3.4
			c-0.2,1.2-0.3,2.3-0.5,3.5c-0.3,1.2-0.5,2.4-0.9,3.6c-0.4,1.2-0.7,2.4-1.2,3.5l-0.7,1.7l-0.8,1.7c-0.5,1.1-1.3,2.2-1.9,3.3
			c-0.3,0.5-0.7,1-1.1,1.5c-0.4,0.5-0.7,1-1.1,1.5c-0.4,0.5-0.8,0.9-1.2,1.4c-0.4,0.5-0.8,0.9-1.3,1.3c-0.8,0.9-1.7,1.7-2.6,2.4
			c-1.8,1.5-3.6,2.8-5.4,3.9c-1.8,1.1-3.6,2-5.1,2.7c-3.3,1.5-6.3,2.2-8.3,2.7C110.1,404.4,108.9,404.5,108.9,404.5z"/>
	</g>
	<path opacity="0.3" fill="#352E27" enable-background="new    " d="M73,230.9c-0.6,0.2-1.4,0.3-2.3,0.6c-0.9,0.3-1.8,0.8-2.8,1.3
		c-0.5,0.3-1.1,0.5-1.6,0.8c-0.5,0.3-1,0.7-1.6,1.1c-0.5,0.4-1.1,0.8-1.7,1.2c-0.5,0.5-1,1-1.6,1.5c-0.5,0.5-1.1,1-1.6,1.6
		s-0.9,1.2-1.4,1.8c-1,1.2-1.7,2.5-2.6,3.8c-0.8,1.3-1.4,2.8-2,4.1c-0.5,1.3-0.9,2.6-1.3,3.9c-1.4,0.3-3,0.6-4.8,0.8
		c-2.9,0.2-6.2,0-9.5-0.9c-3.4-0.9-6.8-2.7-9.8-5.1c-3.1-2.5-5.7-5.9-7.3-9.8c-1.7-3.9-2.2-8.3-1.1-12.4c0.5-2,1.5-4.1,2.7-5.9
		c1.2-1.9,2.7-3.5,4.4-4.8c3.4-2.7,7.7-4.3,12-4.2s8.4,1.7,11.5,4.4c0.4,0.4,0.7,0.6,1.1,1l0.6,0.6l0.1,0.2c0-0.1,0,0.1,0.1,0.1
		l0.2,0.3c0.5,0.7,0.9,1.5,1.2,2.4c0.6,1.7,0.6,3.6,0.1,5.4c-0.8,3.6-3.4,6.4-6.3,7.9c-1.5,0.7-3.1,1.2-4.6,1.4
		c-0.4,0-0.7,0.1-1.1,0.1c-0.4,0-0.8,0-1.2,0c-0.7,0-1.4,0-2.1-0.2c-2.7-0.4-4.8-2-6.1-3.6c-1.3-1.6-2-3.2-2.4-4.2
		c-0.4-1.1-0.5-1.7-0.5-1.7s0,0.6,0.2,1.8c0.2,1.1,0.6,2.8,1.8,4.7c0.6,0.9,1.4,1.9,2.5,2.8c1.1,0.9,2.5,1.6,4,2
		c0.8,0.2,1.6,0.4,2.5,0.5c0.4,0,0.8,0.1,1.2,0.1s0.9,0,1.3,0c1.8-0.1,3.7-0.4,5.6-1.2c1.9-0.7,3.7-1.9,5.3-3.5
		c1.5-1.6,2.7-3.7,3.4-6c0.7-2.3,0.9-4.9,0.2-7.4c-0.3-1.3-0.9-2.5-1.7-3.7l-0.3-0.4c-0.1-0.1-0.1-0.1-0.2-0.3l-0.1-0.2l-0.5-0.7
		c-0.4-0.4-0.9-1-1.3-1.4c-3.7-3.5-8.9-5.8-14.2-5.9c-5.4-0.2-10.9,1.7-15,5c-2.1,1.7-3.9,3.8-5.4,6c-1.4,2.3-2.6,4.6-3.3,7.3
		c-1.3,5.3-0.3,10.8,1.8,15.1c2.1,4.5,5.4,8.2,9,10.8c3.6,2.7,7.6,4.3,11.4,5c3.8,0.8,7.4,0.6,10.4,0.1c1.5-0.3,2.9-0.6,4.2-1.1
		c-0.5,2.3-0.8,4.5-0.9,6.5c-0.1,2.3,0,4.1,0.2,5.4c0.2,1.2,0.4,2,0.4,2s0.2-0.7,0.6-2c0.4-1.2,0.9-3,1.6-5c0.4-1,0.7-2.1,1.1-3.2
		s0.9-2.3,1.4-3.5s1.1-2.4,1.6-3.7c0.7-1.2,1.2-2.5,1.9-3.6c0.7-1.2,1.3-2.4,2.1-3.5c0.4-0.5,0.8-1.1,1.1-1.7c0.4-0.5,0.8-1,1.2-1.5
		c0.4-0.5,0.8-1,1.2-1.5c0.4-0.4,0.9-0.9,1.3-1.3c0.4-0.4,0.8-0.9,1.2-1.3c0.4-0.4,0.8-0.7,1.2-1.1c0.8-0.7,1.5-1.4,2.2-1.9
		c0.7-0.5,1.3-1,1.8-1.4c1-0.8,1.6-1.3,1.6-1.3S74.3,230.5,73,230.9z"/>
	<g opacity="0.3">
		<path fill="#352E27" d="M215.1,90.7c0,0,0.3-0.5,0.8-1.3c0.6-0.9,1.4-2.1,2.5-3.7c2.3-3.1,5.7-7.4,10.4-12.1s10.6-9.8,17.8-14.3
			c3.6-2.2,7.6-4.2,11.8-5.8c4.3-1.6,8.9-2.7,13.6-3c4.8-0.3,9.7,0.3,14.2,1.8c2.3,0.7,4.4,1.7,6.4,2.8c1,0.6,2,1.2,2.9,1.8
			s1.7,1.1,2.6,1.8c3.5,2.5,6.5,5.1,9.3,7.9c2.7,2.8,5,5.6,7,8.4c1.9,2.8,3.4,5.5,4.5,8s1.8,4.8,2.3,6.7c0.5,1.9,0.6,3.4,0.7,4.4
			c0.1,1,0.1,1.6,0.1,1.6s-0.1-0.5-0.5-1.5c-0.3-1-1-2.3-1.8-4c-0.9-1.7-2-3.6-3.5-5.7c-1.5-2.1-3.3-4.4-5.4-6.6
			c-2.1-2.3-4.6-4.6-7.4-6.8c-2.8-2.2-5.9-4.5-9.1-6.5c-0.8-0.5-1.7-1-2.6-1.6c-0.8-0.5-1.6-0.9-2.5-1.3c-1.7-0.8-3.4-1.5-5.1-2.1
			c-3.6-1-7.5-1.5-11.4-1.2c-3.9,0.2-7.8,1.1-11.6,2.3s-7.4,2.9-10.9,4.6c-6.9,3.6-13.1,7.8-18.2,11.6c-2.6,1.9-4.9,3.7-6.9,5.4
			c-2,1.6-3.8,3.1-5.3,4.3c-1.4,1.2-2.6,2.2-3.3,2.9C215.5,90.4,215.1,90.7,215.1,90.7z"/>
	</g>
	<g opacity="0.3">
		<path fill="#352E27" d="M428.1,61.1c0,0-0.5-0.2-1.3-0.6c-0.9-0.4-2.1-0.9-3.8-1.6c-1.6-0.7-3.6-1.4-5.9-2.3
			c-2.3-0.8-4.8-1.7-7.7-2.6c-2.8-0.9-5.9-1.7-9.1-2.4c-3.2-0.7-6.7-1.3-10.2-1.6c-3.5-0.3-7.2-0.4-10.9-0.1
			c-3.6,0.3-7.3,1-10.8,2.1c-3.5,1.1-6.9,2.6-10,4.5c-1.6,0.9-3.1,1.9-4.5,3c-1.6,1.2-2.9,2.2-4.3,3.4c-2.8,2.3-5.3,4.7-7.6,7.1
			c-2.3,2.4-4.3,4.8-6,7.2c-1.7,2.4-3.1,4.6-4.2,6.7c-1.1,2.1-2,4-2.6,5.6c-0.6,1.6-1,2.9-1.3,3.8c-0.2,0.9-0.3,1.4-0.3,1.4
			s-0.1-0.5-0.1-1.5s0-2.4,0.2-4.2c0.2-1.8,0.6-4,1.4-6.4c0.7-2.4,1.7-5,3.2-7.9c1.4-2.8,3.2-5.7,5.3-8.6c2.1-2.9,4.6-5.8,7.4-8.5
			c0.7-0.7,1.4-1.4,2.2-2c0.8-0.7,1.5-1.3,2.2-2c1.5-1.3,3.2-2.6,4.9-3.8c3.5-2.4,7.5-4.3,11.7-5.6c4.1-1.3,8.5-2.1,12.7-2.3
			c4.2-0.2,8.4,0.1,12.3,0.7c3.9,0.7,7.6,1.7,11,2.8c3.4,1.2,6.5,2.5,9.2,3.9c2.8,1.4,5.1,2.8,7.3,4.2c2.1,1.3,3.9,2.6,5.3,3.7
			c1.4,1.1,2.5,2,3.2,2.6C427.7,60.7,428.1,61.1,428.1,61.1z"/>
	</g>
</g>
</svg>
